<?xml version="1.0" encoding="utf-8"?>
<!-- Generator: Adobe Illustrator 25.4.1, SVG Export Plug-In . SVG Version: 6.00 Build 0)  -->
<svg version="1.1" id="Capa_1" xmlns="http://www.w3.org/2000/svg" xmlns:xlink="http://www.w3.org/1999/xlink" x="0px" y="0px"
	 viewBox="0 0 381 378" style="enable-background:new 0 0 381 378;" xml:space="preserve">
<style type="text/css">
	.st0{fill:none;}
	.st1{fill:url(#SVGID_1_);}
	.st2{fill:url(#SVGID_00000152256945467072385410000004212901111246055307_);}
	.st3{fill:url(#SVGID_00000037690383422545197960000006988295735786635199_);}
	.st4{fill:url(#SVGID_00000155864464490107333830000014174599551307770286_);}
</style>
<path class="st0" d="M272.91,188.5c0,23.32-6.45,45.12-17.67,63.73c-0.25,0.41-0.59,0.76-1,1c-18.61,11.22-40.42,17.67-63.73,17.67
	c-23.31,0-45.12-6.45-63.72-17.67c-0.41-0.25-0.76-0.59-1-1c-11.22-18.61-17.67-40.42-17.67-63.73c0-23.31,6.45-45.12,17.67-63.72
	c0.25-0.41,0.59-0.76,1-1c18.61-11.22,40.42-17.67,63.72-17.67c23.32,0,45.12,6.45,63.73,17.67c0.41,0.25,0.76,0.59,1,1
	C266.45,143.38,272.91,165.19,272.91,188.5z"/>
<path class="st0" d="M272.91,188.5c0,23.32-6.45,45.12-17.67,63.73c-0.25,0.41-0.59,0.76-1,1c-18.61,11.22-40.42,17.67-63.73,17.67
	c-23.31,0-45.12-6.45-63.72-17.67c-0.41-0.25-0.76-0.59-1-1c-11.22-18.61-17.67-40.42-17.67-63.73c0-23.31,6.45-45.12,17.67-63.72
	c0.25-0.41,0.59-0.76,1-1c18.61-11.22,40.42-17.67,63.72-17.67c23.32,0,45.12,6.45,63.73,17.67c0.41,0.25,0.76,0.59,1,1
	C266.45,143.38,272.91,165.19,272.91,188.5z"/>
<path class="st0" d="M272.91,188.5c0,23.32-6.45,45.12-17.67,63.73c-0.25,0.41-0.59,0.76-1,1c-18.61,11.22-40.42,17.67-63.73,17.67
	c-23.31,0-45.12-6.45-63.72-17.67c-0.41-0.25-0.76-0.59-1-1c-11.22-18.61-17.67-40.42-17.67-63.73c0-23.31,6.45-45.12,17.67-63.72
	c0.25-0.41,0.59-0.76,1-1c18.61-11.22,40.42-17.67,63.72-17.67c23.32,0,45.12,6.45,63.73,17.67c0.41,0.25,0.76,0.59,1,1
	C266.45,143.38,272.91,165.19,272.91,188.5z"/>
<linearGradient id="SVGID_1_" gradientUnits="userSpaceOnUse" x1="154.5845" y1="103.0008" x2="366.4787" y2="210.331">
	<stop  offset="0" style="stop-color:#000000"/>
	<stop  offset="1" style="stop-color:#06ADC4"/>
</linearGradient>
<path class="st1" d="M372.2,188.5c0,0.61-0.01,1.21-0.01,1.82c-0.57,39.58-19.74,74.66-49.17,96.88c-2.42,1.83-5.69-0.85-4.37-3.58
	c7.91-16.29,12.35-34.59,12.35-53.91c0-14.45-2.48-28.32-7.04-41.2c-9.54-26.99-28.17-49.66-52.22-64.36
	c-18.74-11.45-40.78-18.05-64.36-18.05c-19.32,0-37.62,4.44-53.91,12.35c-2.74,1.33-5.4-1.96-3.56-4.39
	c14.48-19.16,34.4-33.96,57.48-42.12c12.89-4.56,26.75-7.04,41.2-7.04c23.57,0,45.61,6.6,64.35,18.05
	c35.06,21.41,58.61,59.79,59.25,103.73C372.19,187.28,372.2,187.88,372.2,188.5z"/>
<linearGradient id="SVGID_00000010306182831206309490000009331580858218317489_" gradientUnits="userSpaceOnUse" x1="240.7327" y1="140.5276" x2="185.9716" y2="356.2859">
	<stop  offset="0" style="stop-color:#000000"/>
	<stop  offset="1" style="stop-color:#E1157A"/>
</linearGradient>
<path style="fill:url(#SVGID_00000010306182831206309490000009331580858218317489_);" d="M314.11,246.59
	c0,23.57-6.6,45.61-18.05,64.35c-21.41,35.06-59.8,58.61-103.73,59.25c-0.61,0.01-1.21,0.01-1.82,0.01c-0.61,0-1.21-0.01-1.82-0.01
	c-39.58-0.57-74.65-19.74-96.87-49.17c-1.83-2.42,0.85-5.69,3.58-4.37c16.29,7.91,34.58,12.35,53.91,12.35
	c14.45,0,28.32-2.48,41.21-7.04c26.98-9.54,49.66-28.17,64.35-52.22c11.45-18.74,18.05-40.78,18.05-64.36
	c0-19.32-4.44-37.62-12.35-53.91c-1.33-2.74,1.96-5.4,4.39-3.56c19.16,14.48,33.96,34.4,42.12,57.48
	C311.63,218.27,314.11,232.14,314.11,246.59z"/>
<linearGradient id="SVGID_00000120524325019356974650000009885033277327672255_" gradientUnits="userSpaceOnUse" x1="146.8972" y1="234.3558" x2="176.4178" y2="96.5928">
	<stop  offset="0" style="stop-color:#000000"/>
	<stop  offset="1" style="stop-color:#FDC619"/>
</linearGradient>
<path style="fill:url(#SVGID_00000120524325019356974650000009885033277327672255_);" d="M289.19,55.99
	c1.83,2.42-0.85,5.69-3.58,4.37c-16.29-7.91-34.59-12.35-53.91-12.35c-14.45,0-28.32,2.48-41.2,7.04
	c-26.99,9.54-49.66,28.17-64.36,52.22c-11.45,18.74-18.05,40.78-18.05,64.35c0,19.33,4.44,37.63,12.35,53.92
	c1.33,2.74-1.96,5.4-4.39,3.56c-19.16-14.47-33.97-34.4-42.12-57.47c-4.56-12.89-7.04-26.76-7.04-41.21
	c0-23.58,6.6-45.61,18.05-64.35c21.41-35.05,59.79-58.61,103.73-59.25c0.61-0.01,1.21-0.01,1.82-0.01c0.61,0,1.21,0.01,1.82,0.01
	C231.9,7.39,266.98,26.57,289.19,55.99z"/>
<linearGradient id="SVGID_00000125562629568859633440000003919786737546649500_" gradientUnits="userSpaceOnUse" x1="182.6691" y1="309.2714" x2="14.5525" y2="145.0514">
	<stop  offset="0" style="stop-color:#000000"/>
	<stop  offset="1" style="stop-color:#FFFFFF"/>
</linearGradient>
<path style="fill:url(#SVGID_00000125562629568859633440000003919786737546649500_);" d="M227.54,258.56
	c2.74-1.33,5.4,1.96,3.56,4.39c-14.47,19.16-34.4,33.97-57.47,42.12c-12.89,4.56-26.76,7.04-41.21,7.04
	c-23.58,0-45.61-6.6-64.35-18.05c-35.05-21.41-58.61-59.8-59.25-103.73c-0.01-0.61-0.01-1.21-0.01-1.82c0-0.61,0.01-1.21,0.01-1.82
	c0.57-39.58,19.75-74.65,49.17-96.87c2.42-1.83,5.69,0.85,4.37,3.58c-7.91,16.29-12.35,34.58-12.35,53.91
	c0,14.45,2.48,28.32,7.04,41.21c9.54,26.98,28.17,49.66,52.22,64.35c18.74,11.45,40.78,18.05,64.35,18.05
	C192.95,270.91,211.24,266.47,227.54,258.56z"/>
</svg>
